<svg width="171" height="39" viewBox="0 0 171 39" fill="none" xmlns="http://www.w3.org/2000/svg">
<path d="M58.4148 17.2216H55.7557C55.6534 16.6534 55.4631 16.1534 55.1847 15.7216C54.9063 15.2898 54.5653 14.9233 54.1619 14.6222C53.7585 14.321 53.3068 14.0937 52.8068 13.9403C52.3125 13.7869 51.7869 13.7102 51.2301 13.7102C50.2244 13.7102 49.3239 13.9631 48.5284 14.4688C47.7386 14.9744 47.1136 15.7159 46.6534 16.6932C46.1989 17.6705 45.9716 18.8636 45.9716 20.2727C45.9716 21.6932 46.1989 22.892 46.6534 23.8693C47.1136 24.8466 47.7415 25.5852 48.5369 26.0852C49.3324 26.5852 50.2273 26.8352 51.2216 26.8352C51.7727 26.8352 52.2955 26.7614 52.7898 26.6136C53.2898 26.4602 53.7415 26.2358 54.1449 25.9403C54.5483 25.6449 54.8892 25.2841 55.1676 24.858C55.4517 24.4261 55.6477 23.9318 55.7557 23.375L58.4148 23.3835C58.2727 24.2415 57.9972 25.0312 57.5881 25.7528C57.1847 26.4688 56.6648 27.0881 56.0284 27.6108C55.3977 28.1278 54.6761 28.5284 53.8636 28.8125C53.0511 29.0966 52.1648 29.2386 51.2045 29.2386C49.6932 29.2386 48.3466 28.8807 47.1648 28.1648C45.983 27.4432 45.0511 26.4119 44.3693 25.071C43.6932 23.7301 43.3551 22.1307 43.3551 20.2727C43.3551 18.4091 43.696 16.8097 44.3778 15.4744C45.0597 14.1335 45.9915 13.1051 47.1733 12.3892C48.3551 11.6676 49.6989 11.3068 51.2045 11.3068C52.1307 11.3068 52.9943 11.4403 53.7955 11.7074C54.6023 11.9687 55.3267 12.3551 55.9688 12.8665C56.6108 13.3722 57.142 13.9915 57.5625 14.7244C57.983 15.4517 58.267 16.2841 58.4148 17.2216ZM69.6541 23.571V15.9091H72.2109V29H69.7053V26.733H69.5689C69.2678 27.4318 68.7848 28.0142 68.12 28.4801C67.4609 28.9403 66.6399 29.1705 65.657 29.1705C64.8161 29.1705 64.0717 28.9858 63.424 28.6165C62.782 28.2415 62.2763 27.6875 61.907 26.9545C61.5433 26.2216 61.3615 25.3153 61.3615 24.2358V15.9091H63.9098V23.929C63.9098 24.821 64.157 25.5312 64.6513 26.0597C65.1456 26.5881 65.7876 26.8523 66.5774 26.8523C67.0547 26.8523 67.5291 26.733 68.0007 26.4943C68.478 26.2557 68.8729 25.8949 69.1854 25.4119C69.5036 24.929 69.6598 24.3153 69.6541 23.571ZM75.6349 15.9091H78.1832V29.8523C78.1832 30.7273 78.0241 31.4659 77.706 32.0682C77.3935 32.6705 76.9276 33.1278 76.3082 33.4403C75.6946 33.7528 74.9361 33.9091 74.0327 33.9091C73.9418 33.9091 73.8565 33.9091 73.777 33.9091C73.6918 33.9091 73.6037 33.9063 73.5128 33.9006V31.7102C73.5923 31.7102 73.6634 31.7102 73.7259 31.7102C73.7827 31.7102 73.848 31.7102 73.9219 31.7102C74.5241 31.7102 74.9588 31.5483 75.2259 31.2244C75.4986 30.9063 75.6349 30.4432 75.6349 29.8352V15.9091ZM76.8963 13.8892C76.4531 13.8892 76.0724 13.7415 75.7543 13.446C75.4418 13.1449 75.2855 12.7869 75.2855 12.3722C75.2855 11.9517 75.4418 11.5937 75.7543 11.2983C76.0724 10.9972 76.4531 10.8466 76.8963 10.8466C77.3395 10.8466 77.7173 10.9972 78.0298 11.2983C78.348 11.5937 78.5071 11.9517 78.5071 12.3722C78.5071 12.7869 78.348 13.1449 78.0298 13.446C77.7173 13.7415 77.3395 13.8892 76.8963 13.8892ZM87.1257 29.2642C85.8984 29.2642 84.8274 28.983 83.9126 28.4205C82.9979 27.858 82.2876 27.071 81.782 26.0597C81.2763 25.0483 81.0234 23.8665 81.0234 22.5142C81.0234 21.1562 81.2763 19.9687 81.782 18.9517C82.2876 17.9347 82.9979 17.1449 83.9126 16.5824C84.8274 16.0199 85.8984 15.7386 87.1257 15.7386C88.353 15.7386 89.424 16.0199 90.3388 16.5824C91.2536 17.1449 91.9638 17.9347 92.4695 18.9517C92.9751 19.9687 93.228 21.1562 93.228 22.5142C93.228 23.8665 92.9751 25.0483 92.4695 26.0597C91.9638 27.071 91.2536 27.858 90.3388 28.4205C89.424 28.983 88.353 29.2642 87.1257 29.2642ZM87.1342 27.125C87.9297 27.125 88.5888 26.9148 89.1115 26.4943C89.6342 26.0739 90.0206 25.5142 90.2706 24.8153C90.5263 24.1165 90.6541 23.3466 90.6541 22.5057C90.6541 21.6705 90.5263 20.9034 90.2706 20.2045C90.0206 19.5 89.6342 18.9347 89.1115 18.5085C88.5888 18.0824 87.9297 17.8693 87.1342 17.8693C86.3331 17.8693 85.6683 18.0824 85.1399 18.5085C84.6172 18.9347 84.228 19.5 83.9723 20.2045C83.7223 20.9034 83.5973 21.6705 83.5973 22.5057C83.5973 23.3466 83.7223 24.1165 83.9723 24.8153C84.228 25.5142 84.6172 26.0739 85.1399 26.4943C85.6683 26.9148 86.3331 27.125 87.1342 27.125ZM98.6207 21.2273V29H96.0724V15.9091H98.5185V18.0398H98.6804C98.9815 17.3466 99.4531 16.7898 100.095 16.3693C100.743 15.9489 101.558 15.7386 102.541 15.7386C103.433 15.7386 104.214 15.9261 104.885 16.3011C105.555 16.6705 106.075 17.2216 106.445 17.9545C106.814 18.6875 106.999 19.5937 106.999 20.6733V29H104.45V20.9801C104.45 20.0312 104.203 19.2898 103.709 18.7557C103.214 18.2159 102.536 17.946 101.672 17.946C101.081 17.946 100.555 18.0739 100.095 18.3295C99.6406 18.5852 99.2798 18.9602 99.0128 19.4545C98.7514 19.9432 98.6207 20.5341 98.6207 21.2273ZM110.416 29V15.9091H112.964V29H110.416ZM111.703 13.8892C111.26 13.8892 110.879 13.7415 110.561 13.446C110.249 13.1449 110.092 12.7869 110.092 12.3722C110.092 11.9517 110.249 11.5937 110.561 11.2983C110.879 10.9972 111.26 10.8466 111.703 10.8466C112.146 10.8466 112.524 10.9972 112.837 11.2983C113.155 11.5937 113.314 11.9517 113.314 12.3722C113.314 12.7869 113.155 13.1449 112.837 13.446C112.524 13.7415 112.146 13.8892 111.703 13.8892ZM121.907 29.2642C120.64 29.2642 119.549 28.9773 118.634 28.4034C117.725 27.8239 117.026 27.0256 116.538 26.0085C116.049 24.9915 115.805 23.8267 115.805 22.5142C115.805 21.1847 116.055 20.0114 116.555 18.9943C117.055 17.9716 117.759 17.1733 118.668 16.5994C119.577 16.0256 120.648 15.7386 121.881 15.7386C122.876 15.7386 123.762 15.9233 124.54 16.2926C125.319 16.6562 125.947 17.1676 126.424 17.8267C126.907 18.4858 127.194 19.2557 127.285 20.1364H124.805C124.668 19.5227 124.356 18.9943 123.867 18.5511C123.384 18.108 122.737 17.8864 121.924 17.8864C121.214 17.8864 120.592 18.0739 120.058 18.4489C119.529 18.8182 119.117 19.3466 118.822 20.0341C118.526 20.7159 118.379 21.5227 118.379 22.4545C118.379 23.4091 118.523 24.233 118.813 24.9261C119.103 25.6193 119.512 26.1562 120.04 26.5369C120.575 26.9176 121.202 27.108 121.924 27.108C122.407 27.108 122.844 27.0199 123.237 26.8438C123.634 26.6619 123.967 26.4034 124.234 26.0682C124.506 25.733 124.697 25.3295 124.805 24.858H127.285C127.194 25.7045 126.918 26.4602 126.458 27.125C125.998 27.7898 125.381 28.3125 124.609 28.6932C123.842 29.0739 122.941 29.2642 121.907 29.2642ZM139.82 19.1051L137.51 19.5142C137.413 19.2187 137.26 18.9375 137.05 18.6705C136.845 18.4034 136.567 18.1847 136.214 18.0142C135.862 17.8437 135.422 17.7585 134.893 17.7585C134.172 17.7585 133.57 17.9205 133.087 18.2443C132.604 18.5625 132.362 18.9744 132.362 19.4801C132.362 19.9176 132.524 20.2699 132.848 20.5369C133.172 20.804 133.695 21.0227 134.416 21.1932L136.496 21.6705C137.7 21.9489 138.598 22.3778 139.189 22.9574C139.78 23.5369 140.075 24.2898 140.075 25.2159C140.075 26 139.848 26.6989 139.393 27.3125C138.945 27.9205 138.317 28.3977 137.51 28.7443C136.709 29.0909 135.78 29.2642 134.723 29.2642C133.257 29.2642 132.061 28.9517 131.135 28.3267C130.209 27.696 129.641 26.8011 129.43 25.642L131.893 25.267C132.047 25.9091 132.362 26.3949 132.839 26.7244C133.317 27.0483 133.939 27.2102 134.706 27.2102C135.541 27.2102 136.209 27.0369 136.709 26.6903C137.209 26.3381 137.459 25.9091 137.459 25.4034C137.459 24.9943 137.305 24.6506 136.999 24.3722C136.697 24.0937 136.234 23.8835 135.609 23.7415L133.393 23.2557C132.172 22.9773 131.268 22.5341 130.683 21.9261C130.104 21.3182 129.814 20.5483 129.814 19.6165C129.814 18.8437 130.03 18.1676 130.462 17.5881C130.893 17.0085 131.49 16.5568 132.251 16.233C133.013 15.9034 133.885 15.7386 134.868 15.7386C136.283 15.7386 137.396 16.0455 138.209 16.6591C139.021 17.267 139.558 18.0824 139.82 19.1051Z" fill="#126BEE"/>
<path d="M27.4778 0L38.961 11.62L28.7081 17.0882L19.6856 8.20232L27.4778 0Z" fill="url(#paint0_linear_110_2)"/>
<path d="M11.4833 0H27.6145L7.5188 21.326L0 11.2098L11.4833 0Z" fill="url(#paint1_linear_110_2)"/>
<path d="M0 27.3411V11.2098L20.7792 31.4422L11.3465 38.8243L0 27.3411Z" fill="url(#paint2_linear_110_2)"/>
<path d="M28.5714 21.4627L38.961 27.6145L27.2044 38.961L11.3466 38.8243L28.5714 21.4627Z" fill="url(#paint3_linear_110_2)"/>
<defs>
<linearGradient id="paint0_linear_110_2" x1="29.2503" y1="0" x2="29.2503" y2="17.3616" gradientUnits="userSpaceOnUse">
<stop stop-color="#126BEE"/>
<stop offset="1" stop-color="#149F84"/>
</linearGradient>
<linearGradient id="paint1_linear_110_2" x1="13.8072" y1="0" x2="13.8072" y2="20.3691" gradientUnits="userSpaceOnUse">
<stop stop-color="#392F73"/>
<stop offset="1" stop-color="#126BEE"/>
</linearGradient>
<linearGradient id="paint2_linear_110_2" x1="10.7314" y1="11.2098" x2="10.7314" y2="38.8243" gradientUnits="userSpaceOnUse">
<stop stop-color="#226A5C"/>
<stop offset="1" stop-color="#1055BA"/>
</linearGradient>
<linearGradient id="paint3_linear_110_2" x1="40.4648" y1="17.7717" x2="18.7286" y2="41.9685" gradientUnits="userSpaceOnUse">
<stop stop-color="#4788E8"/>
<stop offset="1" stop-color="#0E5DD0"/>
</linearGradient>
</defs>
</svg>
